<svg width="68" height="67" viewBox="0 0 68 67" fill="none" xmlns="http://www.w3.org/2000/svg">
<g clip-path="url(#clip0_1_655)">
<path d="M5.40679 49.2466H27.4567L25.985 53.1706C25.8204 53.6082 26.0425 54.0958 26.4793 54.2597C26.9175 54.4243 27.4045 54.2023 27.5684 53.7654L29.2436 49.2995H37.9242L39.5994 53.7654C39.7263 54.1044 40.0488 54.3139 40.3911 54.3139C40.4903 54.3139 40.5901 54.2967 40.6885 54.2597C41.1254 54.0958 41.3474 53.6082 41.1828 53.1706L39.7111 49.2466H61.7611C64.2273 49.2466 66.2342 47.2397 66.2342 44.7734C66.2342 27.8247 66.2342 24.123 66.2342 8.75445C66.2342 6.28819 64.2273 4.28125 61.7611 4.28125H5.40679C2.94053 4.28138 0.933594 6.28832 0.933594 8.75445V44.7734C0.933594 47.2397 2.94053 49.2466 5.40679 49.2466ZM64.5422 44.7736C64.5422 46.3073 63.2946 47.555 61.7608 47.555H5.40679C3.87302 47.555 2.62539 46.3073 2.62539 44.7736V38.8994H64.5422V44.7736ZM5.40679 5.97305H61.7608C63.2946 5.97305 64.5422 7.22068 64.5422 8.75445V37.2077H2.62526V8.75445C2.62526 7.22068 3.87289 5.97305 5.40679 5.97305Z" fill="white"/>
<path d="M43.4724 56.002H23.6953C21.6811 56.002 20.0423 57.6409 20.0423 59.655V61.0804H18.2727C17.8055 61.0804 17.4268 61.459 17.4268 61.9263C17.4268 62.3934 17.8054 62.7722 18.2727 62.7722H48.8953C49.3625 62.7722 49.7412 62.3935 49.7412 61.9263C49.7412 61.4591 49.3626 61.0804 48.8953 61.0804H47.1257V59.655C47.1256 57.6407 45.4867 56.002 43.4724 56.002ZM21.734 61.0804V59.655C21.734 58.5732 22.6136 57.6936 23.6953 57.6936H43.4726C44.5543 57.6936 45.4339 58.5732 45.4339 59.655V61.0804H21.734Z" fill="white"/>
<path d="M33.584 46.3978C35.3028 46.3978 36.7011 44.9994 36.7011 43.2812C36.7011 41.5624 35.3028 40.1641 33.584 40.1641C31.8651 40.1641 30.4668 41.5624 30.4668 43.2812C30.4668 44.9994 31.8651 46.3978 33.584 46.3978ZM33.584 41.8559C34.3697 41.8559 35.0093 42.4955 35.0093 43.2812C35.0093 44.0669 34.3697 44.706 33.584 44.706C32.7983 44.706 32.1586 44.0669 32.1586 43.2812C32.1586 42.4955 32.7983 41.8559 33.584 41.8559Z" fill="white"/>
<path d="M40.9412 29.1527C41.2716 29.4831 41.8068 29.4831 42.1372 29.1527L47.1866 24.1026C47.517 23.7722 47.517 23.237 47.1866 22.9066L42.1372 17.8572C41.8068 17.5268 41.2716 17.5268 40.9412 17.8572C40.6108 18.1876 40.6108 18.7228 40.9412 19.0532L45.3926 23.5046L40.9412 27.9567C40.6108 28.2871 40.6108 28.8224 40.9412 29.1527Z" fill="#2CFE90"/>
<path d="M25.0306 29.1527C25.361 29.4831 25.8962 29.4831 26.2267 29.1527C26.5571 28.8223 26.5571 28.2871 26.2267 27.9567L21.7753 23.5046L26.2267 19.0532C26.5571 18.7228 26.5571 18.1876 26.2267 17.8572C25.8962 17.5268 25.361 17.5268 25.0306 17.8572L19.9812 22.9066C19.6508 23.237 19.6508 23.7722 19.9812 24.1026L25.0306 29.1527Z" fill="#2CFE90"/>
<path d="M30.9074 29.3352C31.3407 29.5156 31.8343 29.3103 32.0143 28.8812L36.7153 17.6538C36.8957 17.2229 36.6922 16.7273 36.2614 16.5469C35.8305 16.3672 35.3356 16.57 35.1545 17.0009L30.4534 28.2284C30.2731 28.6592 30.4766 29.1548 30.9074 29.3352Z" fill="#2CFE90"/>
</g>
<defs>
<clipPath id="clip0_1_655">
<rect width="66.8675" height="66.8675" fill="white" transform="translate(0.150391 0.09375)"/>
</clipPath>
</defs>
</svg>
