<svg width="68" height="69" viewBox="0 0 68 69" fill="none" xmlns="http://www.w3.org/2000/svg">
<g clip-path="url(#clip0_1_651)">
<path d="M25.21 38.5276C24.8777 38.1952 24.3393 38.1952 24.007 38.5276L21.4245 41.1101L21.0462 40.7317C19.8527 39.5376 17.915 39.5348 16.7194 40.7317L2.34229 55.1081C1.15016 56.3011 1.15016 58.2414 2.34268 59.4346L9.38038 66.4723C10.5738 67.6664 12.5116 67.6693 13.7071 66.4723L28.0839 52.0958H28.0843C29.2764 50.9027 29.2764 48.9625 28.0839 47.7693L27.7051 47.3906L30.2879 44.8081C30.6202 44.4757 30.6202 43.9374 30.2879 43.6051C29.9555 43.2727 29.4172 43.2727 29.0849 43.6051L26.5021 46.1876L22.6277 42.3131L25.2101 39.7306C25.5424 39.3983 25.5424 38.8599 25.21 38.5276ZM18.8257 58.9467L9.86774 49.9894C10.0042 49.8529 12.2612 47.596 12.1649 47.6922L21.1225 56.65L18.8257 58.9467ZM12.5036 65.2691C11.9911 65.7822 11.0968 65.7822 10.5837 65.2691L3.54598 58.2314C3.01658 57.7023 3.01658 56.8403 3.54558 56.3111L8.66458 51.1923L17.6228 60.1498L12.5036 65.2691ZM26.8807 50.8926L22.3259 55.4473L13.3681 46.4892L17.9227 41.9346C18.4496 41.4071 19.3097 41.4017 19.8426 41.9346C19.9108 42.0028 27.3547 49.4477 26.8803 48.9723C27.4097 49.5015 27.4097 50.3636 26.8807 50.8926Z" fill="white"/>
<path d="M44.6581 1.68652C32.2397 1.68652 22.1875 11.7355 22.1875 24.1575C22.1875 36.5759 32.2362 46.6285 44.6581 46.6285C57.0773 46.6285 67.1287 36.5796 67.1287 24.1575C67.1287 11.7386 57.08 1.68652 44.6581 1.68652ZM44.6581 44.9268C33.1796 44.9268 23.8891 35.6385 23.8891 24.1575C23.8891 12.6793 33.1772 3.38821 44.6581 3.38821C56.1372 3.38821 65.4272 12.6766 65.4272 24.1575C65.4272 35.6364 56.1392 44.9268 44.6581 44.9268Z" fill="#2CFE90"/>
<path d="M58.2806 28.1005V13.4708C58.2806 12.3315 57.3537 11.4043 56.2141 11.4043H53.8561C52.7166 11.4043 51.7897 12.3316 51.7897 13.4708V28.1004H47.9036V17.5951C47.9036 16.4551 46.9763 15.5279 45.8368 15.5279H43.4792C42.3396 15.5279 41.4123 16.4552 41.4123 17.5951V28.1004H37.5263V21.7853C37.5263 20.646 36.5994 19.7189 35.4598 19.7189H33.1022C31.9626 19.7189 31.0353 20.6462 31.0353 21.7853V28.1005H30.6445C29.246 28.1005 28.1084 29.2378 28.1084 30.6363C28.1084 32.0348 29.246 33.1726 30.6445 33.1726H58.6716C60.0701 33.1726 61.2077 32.0348 61.2077 30.6363C61.2077 29.2378 60.0701 28.1005 58.6716 28.1005H58.2806ZM53.4912 13.4708C53.4912 13.2694 53.655 13.1059 53.8561 13.1059H56.2141C56.4152 13.1059 56.5791 13.2694 56.5791 13.4708V28.1004H53.4912V13.4708ZM43.1139 17.5952C43.1139 17.3938 43.2777 17.2296 43.479 17.2296H45.8366C46.038 17.2296 46.2018 17.3938 46.2018 17.5952V28.1005H43.1137V17.5952H43.1139ZM32.7369 21.7853C32.7369 21.584 32.9007 21.4204 33.1021 21.4204H35.4597C35.6608 21.4204 35.8246 21.584 35.8246 21.7853V28.1005H32.7367L32.7369 21.7853ZM59.506 30.6363C59.506 31.0968 59.1317 31.4711 58.6714 31.4711H30.6444C30.1841 31.4711 29.8098 31.0968 29.8098 30.6363C29.8098 30.1763 30.1841 29.8021 30.6444 29.8021H58.6714C59.1317 29.8021 59.506 30.1763 59.506 30.6363Z" fill="white"/>
</g>
<defs>
<clipPath id="clip0_1_651">
<rect width="67.2584" height="67.2584" fill="white" transform="translate(0.660156 0.898438)"/>
</clipPath>
</defs>
</svg>
