<svg width="54" height="55" viewBox="0 0 54 55" fill="none" xmlns="http://www.w3.org/2000/svg">
<path d="M52.8437 6.50119C52.487 6.41821 52.1122 6.52595 51.8546 6.78601L47.4736 11.2017H45.3733L43.0613 8.80622V6.67662L47.3795 2.29399C47.635 2.03476 47.7391 1.66201 47.6544 1.30742C47.5702 0.953241 47.3093 0.667587 46.9642 0.55118C45.8794 0.185445 44.7442 0.000100256 43.5897 0.000100256C40.1478 0.000100256 37.0209 1.60504 35.0106 4.40337C33.1291 7.02296 32.5491 10.2333 33.38 13.3057L25.596 21.0897L12.6277 8.09168V5.54062C12.6277 5.16951 12.4328 4.82524 12.1146 4.63453L4.64259 0.15077C4.22649 -0.0989702 3.6944 -0.033336 3.35178 0.309695L0.363155 3.29791C0.0205364 3.64094 -0.0450977 4.17303 0.20423 4.58913L4.68717 12.0611C4.87788 12.3794 5.22174 12.5738 5.59284 12.5742L8.14307 12.575L21.1126 25.5731L13.3583 33.3274C10.2859 32.4969 7.07394 33.0777 4.45311 34.9604C1.65644 36.9695 0.0527344 40.0956 0.0527344 43.5374C0.0527344 44.6916 0.238079 45.8272 0.603814 46.9116C0.720634 47.2588 1.00918 47.5209 1.36583 47.6035C1.7229 47.6864 2.0973 47.5787 2.3553 47.3186L6.73586 42.9034H8.84771L11.2539 45.3096V47.4214L6.83865 51.802C6.57859 52.06 6.47085 52.4344 6.55382 52.7914C6.63638 53.1481 6.8985 53.4366 7.24566 53.5535C8.33007 53.9192 9.46567 54.1045 10.6198 54.1045C14.0617 54.1045 17.1874 52.5004 19.1969 49.7037C21.0796 47.0829 21.6604 43.8714 20.8299 40.799L27.0577 34.5711L28.4843 36.1208L27.8296 36.7751C27.4168 37.1878 27.4168 37.857 27.8296 38.2698C28.2424 38.6822 28.9111 38.6822 29.3243 38.2698L29.9171 37.677L43.3024 52.2164C43.3123 52.2271 43.3226 52.2375 43.3329 52.2478C45.8097 54.7246 49.8224 54.7254 52.3004 52.2474C54.7714 49.7752 54.7714 45.7525 52.3004 43.2803C52.2897 43.2695 52.2785 43.2592 52.2674 43.2489L37.7053 29.8892L38.2915 29.3031C38.7042 28.8907 38.7042 28.2216 38.2915 27.8088C37.8787 27.396 37.2099 27.396 36.7967 27.8088L36.1466 28.4593L34.5941 27.0344L40.852 20.7764C41.7416 21.0142 42.6596 21.1347 43.5897 21.1347C49.4166 21.1347 54.1568 16.3942 54.1568 10.5676C54.1568 9.41303 53.9714 8.27785 53.6057 7.19303C53.4889 6.84587 53.2003 6.58374 52.8437 6.50119ZM9.32944 10.7719C9.1313 10.5734 8.86257 10.4723 8.58187 10.4723L6.1918 10.4714L2.44116 4.20936L4.26282 2.3877L10.5142 6.13917V8.52924C10.5142 8.80911 10.6252 9.07743 10.8229 9.27557L24.1017 22.5844L22.6069 24.0788L9.32944 10.7719ZM36.2093 31.3852L50.821 44.7898C52.4532 46.4394 52.4482 49.1101 50.8057 50.7535C49.1595 52.3997 46.4945 52.4047 44.8417 50.7679L31.4127 36.181L36.2093 31.3852ZM34.6506 29.9549L29.9799 34.6248L28.5532 33.0752L33.0981 28.5299L34.6506 29.9549ZM43.5897 19.0212C42.6654 19.0212 41.7564 18.873 40.8887 18.5808C40.5086 18.4532 40.0883 18.5515 39.8043 18.835C34.5065 24.1328 23.0912 35.5478 18.8877 39.7517C18.6037 40.0357 18.505 40.4559 18.6334 40.8365C19.5118 43.445 19.0916 46.2272 17.4801 48.4707C15.873 50.7077 13.3723 51.991 10.6198 51.991C10.3107 51.991 10.0031 51.9741 9.69848 51.9415L13.0549 48.6111C13.2547 48.4129 13.3674 48.143 13.3674 47.861V44.8716C13.3674 44.5913 13.2559 44.3226 13.0578 44.1244L10.0324 41.0991C9.83429 40.9009 9.56556 40.7895 9.28527 40.7895H6.29582C6.01389 40.7895 5.74392 40.9022 5.54537 41.102L2.21536 44.4584C2.18234 44.1537 2.16582 43.8462 2.16582 43.537C2.16582 40.7841 3.44879 38.2838 5.68613 36.6768C7.92925 35.0653 10.7119 34.6446 13.3207 35.5235C13.7009 35.6518 14.1212 35.5532 14.4052 35.2692C14.4634 35.2114 35.307 14.3674 35.3218 14.3525C35.6058 14.0685 35.7041 13.6487 35.5761 13.2681C34.6973 10.6597 35.1167 7.87826 36.727 5.63638C38.3352 3.39739 40.8363 2.1136 43.5892 2.1136C43.9079 2.1136 44.2245 2.13135 44.5383 2.16603L41.2516 5.50181C41.0568 5.69954 40.9478 5.96579 40.9478 6.24319V9.23264C40.9478 9.50673 41.0539 9.76968 41.2442 9.96659L44.1639 12.992C44.3628 13.1983 44.6373 13.3148 44.9242 13.3148H47.9137C48.1952 13.3148 48.4652 13.2025 48.6637 13.0023L51.9937 9.64626C52.0267 9.9509 52.0433 10.2584 52.0433 10.5676C52.0433 15.2289 48.2509 19.0212 43.5897 19.0212Z" fill="white"/>
</svg>
