<svg width="54" height="54" viewBox="0 0 54 54" fill="none" xmlns="http://www.w3.org/2000/svg">
<g clip-path="url(#clip0_1_458)">
<path d="M15.6084 17.5083C13.2823 17.5083 11.3896 19.401 11.3896 21.7271C11.3896 24.0532 13.2823 25.9459 15.6084 25.9459C17.9349 25.9459 19.8272 24.0532 19.8272 21.7271C19.8272 19.401 17.9349 17.5083 15.6084 17.5083ZM15.6084 23.8365C14.4454 23.8365 13.499 22.8901 13.499 21.7271C13.499 20.564 14.4454 19.6177 15.6084 19.6177C16.7719 19.6177 17.7178 20.564 17.7178 21.7271C17.7178 22.8901 16.7719 23.8365 15.6084 23.8365Z" fill="#2CFE90"/>
<path d="M31.4298 16.4532C31.4298 14.1271 29.5375 12.2344 27.211 12.2344C24.8849 12.2344 22.9922 14.1271 22.9922 16.4532C22.9922 18.7793 24.8849 20.6719 27.211 20.6719C29.5375 20.6719 31.4298 18.7793 31.4298 16.4532ZM25.1016 16.4532C25.1016 15.2901 26.0479 14.3438 27.211 14.3438C28.3744 14.3438 29.3204 15.2901 29.3204 16.4532C29.3204 17.6162 28.3744 18.5626 27.211 18.5626C26.0479 18.5626 25.1016 17.6162 25.1016 16.4532Z" fill="#2CFE90"/>
<path d="M8.22559 34.3833C8.22559 36.7094 10.1183 38.6021 12.4444 38.6021C14.7709 38.6021 16.6632 36.7094 16.6632 34.3833C16.6632 32.0572 14.7709 30.1646 12.4444 30.1646C10.1183 30.1646 8.22559 32.0572 8.22559 34.3833ZM12.4444 32.2739C13.6078 32.2739 14.5538 33.2203 14.5538 34.3833C14.5538 35.5464 13.6078 36.4927 12.4444 36.4927C11.2813 36.4927 10.335 35.5464 10.335 34.3833C10.335 33.2203 11.2813 32.2739 12.4444 32.2739Z" fill="#2CFE90"/>
<path d="M17.7188 42.8208C17.7188 45.1469 19.6114 47.0396 21.9375 47.0396C24.264 47.0396 26.1563 45.1469 26.1563 42.8208C26.1563 40.4947 24.264 38.6021 21.9375 38.6021C19.6114 38.6021 17.7188 40.4947 17.7188 42.8208ZM24.0469 42.8208C24.0469 43.9839 23.101 44.9302 21.9375 44.9302C20.7745 44.9302 19.8281 43.9839 19.8281 42.8208C19.8281 41.6578 20.7745 40.7114 21.9375 40.7114C23.101 40.7114 24.0469 41.6578 24.0469 42.8208Z" fill="#2CFE90"/>
<path d="M46.2264 10.0303C46.2264 7.52089 42.5753 1.64219 41.8432 0.489445C41.6496 0.184572 41.3138 0 40.9529 0C40.5916 0 40.2558 0.184572 40.0626 0.489445C39.4228 1.49676 36.5557 6.11106 35.8409 8.93402C29.212 6.21076 22.3025 6.28492 16.2351 9.17668C10.2023 12.052 5.33713 17.6451 3.61336 24.6869C3.47452 25.253 3.82101 25.8236 4.38667 25.962C4.47113 25.9826 4.55559 25.9925 4.6384 25.9925C5.11301 25.9925 5.54436 25.6699 5.66219 25.1883C7.1606 19.0669 11.4527 13.7926 17.1427 11.0805C22.8962 8.33869 29.507 8.39266 35.8154 11.2189C36.1462 12.6506 37.0662 13.88 38.3318 14.6059C37.7109 16.8657 37.2273 20.2955 36.9525 24.4302C36.8408 26.1087 36.7654 27.8905 36.7283 29.7354C32.7234 32.0335 30.0858 36.4064 30.4162 41.6292C30.5415 43.6026 30.7306 46.585 27.6234 49.2934C25.404 51.2286 22.1373 51.7604 19.0989 50.6818C11.557 48.0051 6.10096 41.1459 5.19829 33.2069C5.13278 32.628 4.60914 32.2127 4.03153 32.2778C3.45269 32.3437 3.03699 32.8661 3.1025 33.445C4.11517 42.3543 10.1764 49.7532 18.3935 52.6697C22.1501 54.0033 26.2176 53.3173 29.0097 50.8833C32.9014 47.4906 32.6542 43.5907 32.5211 41.4953C32.2751 37.6032 33.9713 34.3106 36.7032 32.2692V32.2733C36.7032 37.2687 37.0859 47.058 38.696 51.6224C38.9251 52.2725 39.5344 54 40.922 54C42.31 54 42.9193 52.2725 43.1484 51.6224C44.7486 47.0864 45.1408 37.3692 45.1408 32.2733C45.1408 31.5494 45.1346 30.8371 45.1227 30.1421C45.4481 30.1375 45.7781 30.1371 46.1123 30.1425C48.1096 30.1717 49.924 28.9563 50.6314 27.1152C52.5698 22.0658 48.9669 17.0362 44.7173 13.723C45.6706 12.7515 46.2264 11.4323 46.2264 10.0303ZM40.9529 3.07675C42.4744 5.65251 44.117 8.86975 44.117 10.0303C44.117 11.8616 42.5955 13.2348 40.8866 13.1965C39.1867 13.1582 37.7888 11.771 37.7888 10.0303C37.7888 8.86975 39.431 5.65251 40.9529 3.07675ZM40.9529 15.3038C41.1391 15.3038 41.3245 15.2931 41.5078 15.2737C42.0245 17.2051 42.4521 20.1488 42.7187 23.6268C41.5322 23.7793 40.3127 23.7764 39.1257 23.619C39.3923 20.1414 39.8207 17.199 40.3382 15.2675C40.5413 15.2914 40.7465 15.3038 40.9529 15.3038ZM40.922 51.5021C39.218 47.8572 38.8126 36.8793 38.8126 32.2737C38.8126 31.6845 38.8262 30.3872 38.8266 30.3839C38.8509 28.7775 38.9053 27.2177 38.9873 25.7288C39.6374 25.8096 40.2949 25.8503 40.9529 25.8503C41.5907 25.8503 42.228 25.812 42.8579 25.7358C42.9193 26.8593 42.9646 28.0133 42.9931 29.1813C43.0186 30.1709 43.0314 31.2112 43.0314 32.2737C43.0314 37.0231 42.6025 47.9083 40.922 51.5021ZM48.6621 26.3592C48.2707 27.3776 47.258 28.0524 46.1452 28.0339C45.7831 28.0281 45.4238 28.0281 45.0699 28.0335C45.0291 26.8107 44.9698 25.6069 44.8928 24.4426C44.8923 24.4356 44.8911 24.4286 44.8903 24.4216C44.6559 20.892 44.2686 17.8767 43.7746 15.6659C48.0433 19.1209 49.9054 23.1205 48.6621 26.3592Z" fill="white"/>
<path d="M5.06154 29.1099C5.06154 29.6924 4.5894 30.1646 4.00684 30.1646C3.4247 30.1646 2.95215 29.6924 2.95215 29.1099C2.95215 28.5273 3.4247 28.0552 4.00684 28.0552C4.5894 28.0552 5.06154 28.5273 5.06154 29.1099Z" fill="white"/>
</g>
<defs>
<clipPath id="clip0_1_458">
<rect width="54" height="54" fill="white"/>
</clipPath>
</defs>
</svg>
