<svg width="54" height="54" viewBox="0 0 54 54" fill="none" xmlns="http://www.w3.org/2000/svg">
<g clip-path="url(#clip0_1_454)">
<path d="M53.971 33.7947C53.8365 30.7007 53.2984 27.2705 52.4913 24.0421C51.6842 20.9481 50.6753 18.056 49.4646 15.8364C44.7565 7.56352 39.6448 8.84144 33.5242 10.4557C31.5737 10.9265 29.4886 11.4646 27.3363 11.6663H26.6637C24.5114 11.4646 22.4264 10.9265 20.4759 10.4557C14.3553 8.9087 9.24355 7.56352 4.5354 15.9037C3.32473 18.1232 2.24858 21.0154 1.50873 24.1093C0.701618 27.3378 0.163543 30.768 0.0290246 33.8619C-0.105494 37.2921 0.230803 39.7807 0.970655 41.5295C1.71051 43.1437 2.78666 44.1526 4.1991 44.5562C5.47703 44.8924 6.95674 44.7579 8.5037 44.0853C11.1268 43.0092 14.1535 40.7224 17.1129 37.9647C19.1979 35.947 23.099 34.9381 27 34.9381C30.9011 34.9381 34.8021 35.947 36.8871 37.9647C39.8466 40.7224 42.8732 43.0092 45.4963 44.0853C47.0433 44.6907 48.523 44.8924 49.8009 44.5562C51.1461 44.1526 52.2895 43.211 53.0294 41.4622C53.7692 39.7807 54.1055 37.2921 53.971 33.7947ZM50.7426 40.5206C50.339 41.4622 49.8009 42.0003 49.1283 42.2021C48.3885 42.4039 47.4469 42.2693 46.3707 41.8658C44.0166 40.9242 41.259 38.8391 38.5686 36.2833C36.0128 33.7274 31.5064 32.4495 27 32.4495C22.4936 32.4495 17.9873 33.7274 15.3642 36.1487C12.6065 38.7046 9.84889 40.8569 7.56207 41.7313C6.48592 42.1348 5.54429 42.3366 4.80444 42.0676C4.13184 41.8658 3.59377 41.3277 3.19021 40.3861C2.65214 39.1081 2.3831 37.0231 2.51762 33.9292C2.65214 31.037 3.12295 27.7413 3.93007 24.6474C4.66992 21.7552 5.61155 19.0649 6.75496 17.0471C10.4542 10.3884 14.7588 11.4646 19.8705 12.8097C21.9556 13.3478 24.1079 13.8859 26.4619 14.0877C26.5292 14.0877 26.5292 14.0877 26.5965 14.0877H27.3363C27.4036 14.0877 27.4036 14.0877 27.4708 14.0877C29.8922 13.8859 32.0445 13.3478 34.1295 12.8097C39.2412 11.5318 43.5458 10.3884 47.2451 17.0471C48.3885 19.0649 49.3301 21.688 50.07 24.6474C50.8098 27.7413 51.3479 30.9698 51.4824 33.9292C51.6169 37.0231 51.3479 39.1081 50.7426 40.5206Z" fill="white"/>
<path d="M20.8125 20.6793C20.1399 20.074 19.3328 19.6032 18.3911 19.5359C18.3239 18.6616 17.9203 17.7872 17.315 17.1819L17.2477 17.1146C16.5079 16.3747 15.5662 15.9712 14.4901 15.9712C13.4139 15.9712 12.405 16.442 11.7324 17.1146C11.1271 17.7199 10.6563 18.5943 10.589 19.5359C9.6474 19.6032 8.84029 20.0068 8.1677 20.6121L8.10044 20.6793C7.36059 21.4192 6.95703 22.3608 6.95703 23.437C6.95703 24.5131 7.42785 25.522 8.10044 26.1946C8.77303 26.8672 9.58015 27.2708 10.589 27.338C10.6563 28.2796 11.0599 29.154 11.7324 29.7594C12.4723 30.4992 13.4139 30.9028 14.4901 30.9028C15.5662 30.9028 16.5751 30.4319 17.2477 29.7594C17.853 29.0868 18.3239 28.2796 18.3911 27.338C19.3328 27.2708 20.2071 26.8672 20.8125 26.1946C21.5523 25.4548 21.9559 24.5131 21.9559 23.437C21.9559 22.3608 21.485 21.3519 20.8125 20.6793ZM19.131 24.4459C18.8619 24.7149 18.5256 24.8494 18.1221 24.8494H17.1805C16.5079 24.8494 15.9025 25.3875 15.9025 26.1274V27.0017C15.9025 27.4053 15.768 27.7416 15.499 28.0106C15.2299 28.2796 14.8936 28.4142 14.4901 28.4142C14.0865 28.4142 13.7502 28.2796 13.4812 28.0106C13.2121 27.7416 13.0776 27.4053 13.0776 27.0017V26.0601C13.0776 25.3875 12.5396 24.7822 11.7997 24.7822H10.8581C10.4545 24.7822 10.1182 24.6476 9.84918 24.3786C9.64741 24.1768 9.44563 23.8405 9.44563 23.437C9.44563 23.0334 9.58015 22.6971 9.84918 22.4281C9.84918 22.4281 9.84918 22.4281 9.91644 22.3608C10.1855 22.1591 10.5218 22.0245 10.8581 22.0245H11.7997C12.4723 22.0245 13.0776 21.4865 13.0776 20.7466V19.805C13.0776 19.4014 13.2121 19.0651 13.4812 18.7961C13.7502 18.527 14.0865 18.3925 14.4901 18.3925C14.8936 18.3925 15.2299 18.527 15.499 18.7961C15.499 18.7961 15.499 18.7961 15.5662 18.8633C15.768 19.1324 15.9025 19.4687 15.9025 19.805V20.7466C15.9025 21.4192 16.4406 22.0245 17.1805 22.0245H18.1221C18.5256 22.0245 18.8619 22.159 19.131 22.4281C19.4 22.6971 19.5345 23.0334 19.5345 23.437C19.5345 23.8405 19.4 24.1768 19.131 24.4459Z" fill="#2CFE90"/>
<path d="M38.7027 21.0158C40.0028 21.0158 41.0568 19.9618 41.0568 18.6617C41.0568 17.3616 40.0028 16.3076 38.7027 16.3076C37.4026 16.3076 36.3486 17.3616 36.3486 18.6617C36.3486 19.9618 37.4026 21.0158 38.7027 21.0158Z" fill="#2CFE90"/>
<path d="M38.7027 30.5666C40.0028 30.5666 41.0568 29.5126 41.0568 28.2125C41.0568 26.9124 40.0028 25.8584 38.7027 25.8584C37.4026 25.8584 36.3486 26.9124 36.3486 28.2125C36.3486 29.5126 37.4026 30.5666 38.7027 30.5666Z" fill="#2CFE90"/>
<path d="M33.9273 25.7912C35.2274 25.7912 36.2814 24.7372 36.2814 23.4371C36.2814 22.137 35.2274 21.083 33.9273 21.083C32.6272 21.083 31.5732 22.137 31.5732 23.4371C31.5732 24.7372 32.6272 25.7912 33.9273 25.7912Z" fill="#2CFE90"/>
<path d="M43.4791 25.7912C44.7792 25.7912 45.8332 24.7372 45.8332 23.4371C45.8332 22.137 44.7792 21.083 43.4791 21.083C42.179 21.083 41.125 22.137 41.125 23.4371C41.125 24.7372 42.179 25.7912 43.4791 25.7912Z" fill="#2CFE90"/>
</g>
<defs>
<clipPath id="clip0_1_454">
<rect width="54" height="54" fill="white"/>
</clipPath>
</defs>
</svg>
