<svg width="68" height="67" viewBox="0 0 68 67" fill="none" xmlns="http://www.w3.org/2000/svg">
<path d="M5.32607 34.1533H8.63992C9.13425 36.1603 9.92686 38.0727 11.0033 39.8582L8.66565 42.2043C8.09545 42.7673 7.78149 43.5208 7.78149 44.3262C7.78149 45.1316 8.09545 45.885 8.65991 46.4428L11.6712 49.4642C12.8421 50.6341 14.7469 50.6328 15.9178 49.4627L18.2601 47.1123C20.0494 48.1878 21.9613 48.9828 23.9616 49.4823V52.7985C23.9616 54.4528 25.3072 55.7988 26.9615 55.7988H31.2219C32.8762 55.7988 34.2222 54.4527 34.2222 52.7985V49.48C34.2805 49.4656 34.3386 49.4508 34.3968 49.4356C34.9194 49.3014 35.2342 48.769 35.0997 48.246C34.9661 47.7235 34.436 47.4067 33.9102 47.5432C33.6173 47.6181 33.3238 47.6849 33.0304 47.7507C32.5847 47.8508 32.2679 48.247 32.2679 48.7041V52.7985C32.2679 53.3754 31.7989 53.8445 31.2219 53.8445H26.9615C26.3851 53.8445 25.916 53.3755 25.916 52.7985V48.7041C25.916 48.2417 25.5916 47.8424 25.1392 47.7474C22.8379 47.266 20.6549 46.3589 18.6519 45.0519C18.2635 44.7981 17.7524 44.8534 17.4256 45.1803L14.5344 48.0814C14.1275 48.4903 13.4623 48.4908 13.0544 48.0828L10.0388 45.0577C9.84367 44.8649 9.73579 44.6049 9.73579 44.3262C9.73579 44.0475 9.84367 43.7875 10.0445 43.5895L12.9371 40.687C13.2634 40.3592 13.3154 39.8482 13.0621 39.4612C11.7551 37.4677 10.8524 35.2866 10.3781 32.9795C10.2846 32.5247 9.88468 32.1989 9.42092 32.1989H5.32607C4.74973 32.1989 4.28061 31.7299 4.28061 31.1534V26.893C4.28061 26.3161 4.7496 25.847 5.32607 25.847H9.42105C9.88481 25.847 10.2847 25.5212 10.3782 25.0664C10.8497 22.7732 11.7529 20.5916 13.0631 18.5829C13.3156 18.1959 13.2625 17.6849 12.9358 17.358L10.0437 14.4654C9.63536 14.057 9.63536 13.3928 10.0432 12.9843L13.053 9.97448C13.4495 9.57849 14.1372 9.57745 14.5346 9.97448L17.4271 12.8671C17.7521 13.1935 18.2636 13.2475 18.652 12.9945C20.6608 11.6838 22.8423 10.7805 25.1356 10.3091C25.5903 10.2156 25.9162 9.81566 25.9162 9.3519V5.25745C25.9162 4.68111 26.3851 4.21199 26.9616 4.21199H31.2221C31.7989 4.21199 32.268 4.68097 32.268 5.25745V9.3519C32.268 9.81566 32.5939 10.2156 33.0486 10.3091C35.3561 10.7834 37.5373 11.6866 39.5303 12.9936C39.9178 13.2469 40.4278 13.195 40.7562 12.8686L43.664 9.9703C44.0509 9.57902 44.7357 9.57471 45.1322 9.97552L48.1506 12.9849C48.3491 13.1829 48.4579 13.4454 48.4579 13.7251C48.4579 14.0042 48.3486 14.2671 48.1515 14.4641L45.2495 17.3567C44.9217 17.6836 44.8683 18.195 45.1211 18.583C46.4275 20.5862 47.3341 22.7686 47.8169 25.0703C47.9114 25.5231 48.3107 25.8471 48.7732 25.8471H52.8677C53.444 25.8471 53.9131 26.3161 53.9131 26.8931V31.1536C53.9131 31.7299 53.4441 32.199 52.8677 32.199H48.7732C48.3166 32.199 47.9119 32.5564 47.8108 33.0016C47.7473 33.2812 47.6839 33.5613 47.6118 33.8409C47.4767 34.3635 47.7912 34.8965 48.3136 35.0315C48.839 35.1671 49.3691 34.8517 49.5042 34.3296C49.5195 34.271 49.5342 34.2122 49.5486 34.1536H52.8677C54.522 34.1536 55.8676 32.808 55.8676 31.1537V26.8933C55.8676 25.2389 54.522 23.893 52.8677 23.893H49.5515C49.0514 21.8923 48.2564 19.9808 47.1814 18.1915L49.5324 15.8477C50.0997 15.2804 50.4122 14.5264 50.4122 13.7253C50.4122 12.9237 50.0997 12.1699 49.5315 11.602L46.5173 8.59742C45.9538 8.02722 45.2004 7.71326 44.3955 7.71326C44.395 7.71326 44.395 7.71326 44.395 7.71326C43.5895 7.71326 42.8361 8.02722 42.2788 8.59168L39.9279 10.9349C38.1423 9.8585 36.2294 9.06589 34.2226 8.57104V5.25771C34.2226 3.60339 32.8765 2.25781 31.2223 2.25781H26.9619C25.3076 2.25781 23.962 3.60339 23.962 5.25771V8.57156C21.9656 9.06393 20.0531 9.85654 18.259 10.9354L15.9167 8.59311C14.7821 7.45793 12.8057 7.45898 11.6716 8.59311L8.66134 11.6027C7.49142 12.7726 7.49142 14.6765 8.66134 15.8474L11.0037 18.1898C9.92529 19.9838 9.13281 21.8963 8.64032 23.8927H5.32607C3.67175 23.8927 2.32617 25.2388 2.32617 26.893V31.1534C2.32617 32.8078 3.67175 34.1533 5.32607 34.1533Z" fill="white"/>
<path d="M29.0923 16.9834C22.4536 16.9834 17.0527 22.3843 17.0527 29.0224C17.0527 35.6663 22.4536 41.0715 29.0923 41.0715C35.7362 41.0715 41.1413 35.6663 41.1413 29.0224C41.1413 22.3843 35.7362 16.9834 29.0923 16.9834ZM29.0923 39.1171C23.5316 39.1171 19.0072 34.5884 19.0072 29.0224C19.0072 23.4617 23.5316 18.9378 29.0923 18.9378C34.6582 18.9378 39.1869 23.4617 39.1869 29.0224C39.1869 34.5885 34.6582 39.1171 29.0923 39.1171Z" fill="#2CFE90"/>
<path d="M50.8923 36.8506C43.1878 36.8506 36.9199 43.1185 36.9199 50.823C36.9199 58.5275 43.1878 64.7954 50.8923 64.7954C58.5969 64.7954 64.8648 58.5275 64.8648 50.823C64.8648 43.1185 58.597 36.8506 50.8923 36.8506ZM50.8923 62.8411C44.2657 62.8411 38.8744 57.4498 38.8744 50.8231C38.8744 44.1965 44.2657 38.8052 50.8923 38.8052C57.519 38.8052 62.9103 44.1965 62.9103 50.8231C62.9103 57.4498 57.5191 62.8411 50.8923 62.8411Z" fill="white"/>
<path d="M50.8917 43.7852C50.3521 43.7852 49.9146 44.2227 49.9146 44.7623V49.8463H47.0846C46.5449 49.8463 46.1074 50.2838 46.1074 50.8235C46.1074 51.3631 46.5449 51.8006 47.0846 51.8006H50.8917C51.4314 51.8006 51.8689 51.3631 51.8689 50.8235V44.7624C51.869 44.2227 51.4315 43.7852 50.8917 43.7852Z" fill="#2CFE90"/>
</svg>
