<svg width="21" height="20" viewBox="0 0 21 20" fill="none" xmlns="http://www.w3.org/2000/svg">
<path fill-rule="evenodd" clip-rule="evenodd" d="M10.5456 2.16992C12.2981 2.16991 13.6747 2.16991 14.7494 2.31439C15.8507 2.46247 16.7245 2.77209 17.4111 3.45865C18.0976 4.14521 18.4072 5.01902 18.5553 6.12034C18.6998 7.19507 18.6998 8.5716 18.6998 10.3242V10.4157C18.6998 12.1682 18.6998 13.5448 18.5553 14.6195C18.4072 15.7208 18.0976 16.5946 17.4111 17.2812C16.7245 17.9678 15.8507 18.2774 14.7494 18.4254C13.6747 18.5699 12.2981 18.5699 10.5456 18.5699H10.454C8.70148 18.5699 7.32496 18.5699 6.25022 18.4254C5.1489 18.2774 4.27509 17.9678 3.58853 17.2812C2.90198 16.5946 2.59235 15.7208 2.44428 14.6195C2.29979 13.5448 2.2998 12.1682 2.2998 10.4157V10.3242C2.2998 8.57162 2.29979 7.19507 2.44428 6.12034C2.59235 5.01902 2.90198 4.14521 3.58853 3.45865C4.27509 2.77209 5.1489 2.46247 6.25022 2.31439C7.32495 2.16991 8.70148 2.16991 10.454 2.16992H10.5456ZM14.0998 10.3699C14.0998 12.3582 12.488 13.9699 10.4998 13.9699C8.51158 13.9699 6.8998 12.3582 6.8998 10.3699C6.8998 8.3817 8.51158 6.76992 10.4998 6.76992C12.488 6.76992 14.0998 8.3817 14.0998 10.3699ZM14.9096 6.76992C15.3495 6.76992 15.706 6.41175 15.706 5.96992C15.706 5.5281 15.3495 5.16992 14.9096 5.16992H14.9024C14.4626 5.16992 14.106 5.5281 14.106 5.96992C14.106 6.41175 14.4626 6.76992 14.9024 6.76992H14.9096Z" fill="black"/>
</svg>
