<svg width="34" height="33" viewBox="0 0 34 33" fill="none" xmlns="http://www.w3.org/2000/svg">
<path d="M7.5498 12.5273H6.8748C5.60201 12.5273 4.96562 12.5273 4.57021 12.9227C4.1748 13.3182 4.1748 13.9546 4.1748 15.2273V26.7023C4.1748 27.9751 4.1748 28.6115 4.57021 29.0069C4.96562 29.4023 5.60201 29.4023 6.8748 29.4023H7.5498C8.8226 29.4023 9.45899 29.4023 9.8544 29.0069C10.2498 28.6115 10.2498 27.9751 10.2498 26.7023V15.2273C10.2498 13.9546 10.2498 13.3182 9.8544 12.9227C9.45899 12.5273 8.8226 12.5273 7.5498 12.5273Z" fill="black"/>
<path d="M10.2498 6.78945C10.2498 8.46702 8.88987 9.82695 7.2123 9.82695C5.53474 9.82695 4.1748 8.46702 4.1748 6.78945C4.1748 5.11189 5.53474 3.75195 7.2123 3.75195C8.88987 3.75195 10.2498 5.11189 10.2498 6.78945Z" fill="black"/>
<path d="M16.7653 12.5273H15.6502C14.3774 12.5273 13.741 12.5273 13.3456 12.9227C12.9502 13.3182 12.9502 13.9546 12.9502 15.2273V26.7023C12.9502 27.9751 12.9502 28.6115 13.3456 29.0069C13.741 29.4023 14.3774 29.4023 15.6502 29.4023H16.3252C17.598 29.4023 18.2344 29.4023 18.6298 29.0069C19.0252 28.6115 19.0252 27.9751 19.0252 26.7023L19.0253 21.9775C19.0253 19.7408 19.7381 17.9275 21.8439 17.9275C22.8966 17.9275 23.7502 18.8341 23.7502 19.9525V26.0275C23.7502 27.3003 23.7502 27.9366 24.1456 28.3321C24.5409 28.7275 25.1774 28.7275 26.4502 28.7275H27.1234C28.3959 28.7275 29.0322 28.7275 29.4276 28.3322C29.823 27.9369 29.8232 27.3007 29.8234 26.0282L29.8253 18.6026C29.8253 15.2476 26.6343 12.5277 23.4759 12.5277C21.6778 12.5277 20.0737 13.409 19.0253 14.7872C19.0252 13.9366 19.0252 13.5114 18.8405 13.1956C18.7235 12.9956 18.5569 12.8291 18.3569 12.7121C18.0412 12.5273 17.6159 12.5273 16.7653 12.5273Z" fill="black"/>
</svg>
