<svg width="34" height="33" viewBox="0 0 34 33" fill="none" xmlns="http://www.w3.org/2000/svg">
<path fill-rule="evenodd" clip-rule="evenodd" d="M16.9998 2.06445C8.98477 2.06445 2.4873 8.56192 2.4873 16.577C2.4873 24.592 8.98477 31.0895 16.9998 31.0895C25.0149 31.0895 31.5123 24.592 31.5123 16.577C31.5123 8.56192 25.0149 2.06445 16.9998 2.06445ZM10.2498 8.81445C9.86959 8.81445 9.52141 9.02747 9.34832 9.36601C9.17522 9.70455 9.20638 10.1115 9.42899 10.4198L14.5855 17.5595L9.53386 22.611C9.13846 23.0065 9.13846 23.6474 9.53386 24.0429C9.92927 24.4383 10.5703 24.4383 10.9658 24.0429L15.7864 19.2223L19.179 23.9197C19.3693 24.1834 19.6747 24.3395 19.9998 24.3395H23.7498C24.1301 24.3395 24.4783 24.1264 24.6513 23.7878C24.8244 23.4494 24.7932 23.0424 24.5706 22.7342L19.4141 15.5944L24.4657 10.5429C24.8611 10.1475 24.8611 9.50641 24.4657 9.11101C24.0703 8.71561 23.4293 8.71561 23.0339 9.11101L18.2132 13.9316L14.8206 9.23414C14.6303 8.97058 14.3249 8.81445 13.9998 8.81445H10.2498Z" fill="black"/>
</svg>
